<?xml version="1.0" encoding="UTF-8"?><svg id="Layer_1" xmlns="http://www.w3.org/2000/svg" viewBox="0 0 527.2 190.2"><defs><style>.cls-1{fill:#fff;}</style></defs><path class="cls-1" d="m72.6,106.8h-33.4c-5.8,0-10-3.2-10-9.6s4.2-9.6,10-9.6h21.2v-5c0-15.6-10-19.8-19.8-19.8s-19.8,4.2-19.8,19.8v1.6c0,5.8-4.4,10-10.4,10S0,90,0,84.2v-1.6c0-26.6,18.4-39.4,40.6-39.4s40.6,12.8,40.6,39.4v15.2c0,6.4-2.4,9-8.6,9Z"/><path class="cls-1" d="m0,115.8v-1.6c0-5.8,4.4-10,10.4-10s10.4,4.2,10.4,10v1.6c0,13.4,9.8,17,19.8,17h28c5.8,0,10,4.4,10,10.2s-4.2,10.2-10,10.2h-28c-22.2,0-40.6-12.2-40.6-37.4Z"/><path class="cls-1" d="m518.6,106.8h-33.4c-5.8,0-10-3.2-10-9.6s4.2-9.6,10-9.6h21.2v-5c0-15.6-10-19.8-19.8-19.8s-19.8,4.2-19.8,19.8v1.6c0,5.8-4.4,10-10.4,10s-10.4-4.2-10.4-10v-1.6c0-26.6,18.4-39.4,40.6-39.4s40.6,12.8,40.6,39.4v15.2c0,6.4-2.4,9-8.6,9h0Z"/><path class="cls-1" d="m446,115.8v-1.6c0-5.8,4.4-10,10.4-10s10.4,4.2,10.4,10v1.6c0,13.4,9.8,17,19.8,17h28c5.8,0,10,4.4,10,10.2s-4.2,10.2-10,10.2h-28c-22.2,0-40.6-12.2-40.6-37.4h0Z"/><path class="cls-1" d="m109.8,190.2c-6.4,0-10.4-4.2-10.4-10.2V53.8c0-5.4,3.4-8.6,10.4-8.6h30c22.4,0,41,12.2,41,37.4v1.6c0,5.8-4.4,10-10.4,10s-10.4-4.2-10.4-10v-1.6c0-13-10.2-16.6-20.2-16.6h-19.6v114c0,6-4,10.2-10.4,10.2h0Zm50.2-74.4v-1.6c0-5.8,4.4-10,10.4-10s10.4,4.2,10.4,10v1.6c0,25.2-17.6,37.4-39,37.4h-1.2c-6.2,0-10.4-4.2-10.4-10.4s4.2-10.4,10.4-10.4h1.2c9,0,18.2-3.6,18.2-16.6h0Z"/><path class="cls-1" d="m198.8,45.2h26.4c5.6,0,9.4,4.2,9.4,10.4v28.6c0,5.8-4.6,10-10.4,10s-10.4-4.2-10.4-10v-18.2h-15c-5.6,0-10-4.2-10-10.4s4.4-10.4,10-10.4Zm15,87.2v-18.4c0-5.8,4.6-10,10.4-10s10.4,4.2,10.4,10v18.4h15c5.6,0,10,4.2,10,10.4s-4.4,10.4-10,10.4h-50.8c-5.6,0-10-4.2-10-10.4s3.8-10.4,9.4-10.4h15.6Zm-4.2-118.2C209.6,5.2,216,0,224,0s14.6,5.2,14.6,14.2-6.6,14.6-14.6,14.6-14.4-5.6-14.4-14.6Z"/><path class="cls-1" d="m286,82.6v1.6c0,5.8-4.4,10-10.4,10s-10.4-4.2-10.4-10v-1.6c0-25.2,18.6-37.4,41-37.4h16c6.2,0,10.4,4.2,10.4,10.4s-4.2,10.4-10.4,10.4h-16c-10,0-20.2,3.6-20.2,16.6Zm36.2,49.8c6.2,0,10.4,4.2,10.4,10.4s-4.2,10.4-10.4,10.4h-16c-22.4,0-41-12.2-41-37.4v-1.6c0-5.8,4.4-10,10.4-10s10.4,4.2,10.4,10v1.6c0,13,10.2,16.6,20.2,16.6h16Z"/><path class="cls-1" d="m416.79,153.2h-29.8c-28.2,0-39.8-10-39.8-39.6v-58.4c0-5.8,4.6-10,10.4-10s10.4,4.2,10.4,10v55.4c0,16.2,1.8,21.8,22,21.8h26.8c6.2,0,10.4,4.2,10.4,10.4s-4.2,10.4-10.4,10.4h0Zm10.4-98v57.2c0,5.8-4.6,10-10.4,10s-10.4-4.2-10.4-10v-57.2c0-5.8,4.6-10,10.4-10s10.4,4.2,10.4,10Z"/></svg>